<svg id="Personal-1-mixed" xmlns="http://www.w3.org/2000/svg" width="108" height="108" viewBox="0 0 108 108">
  <g id="hero" transform="translate(-811 -274)">
    <g id="Grupo_3" data-name="Grupo 3" transform="translate(290)">
      <g id="bio" transform="translate(470 274)">
        <g id="avatar" transform="translate(51)">
          <circle id="Oval" cx="54" cy="54" r="54" fill="#DFDFDE"/>
          <g id="Grupo_2" data-name="Grupo 2">
            <g id="Grupo_1" data-name="Grupo 1" transform="translate(20 17)">
              <path id="Fill-31" d="M55.636,80.753C43.853,75.852,39.973,69.763,40.979,61H28.021c1.006,8.763-2.874,14.852-14.657,19.753S0,91,0,91H69s-1.581-5.346-13.364-10.247" fill-rule="evenodd"/>
              <path id="Fill-32" d="M35,83a11.809,11.809,0,0,0,11-7.947c-.357-.345-.688-.7-1-1.053h0a10.6,10.6,0,0,1-10,7.642A10.6,10.6,0,0,1,25,74h0c-.313.356-.646.709-1,1.053A11.809,11.809,0,0,0,35,83" fill="#fffffe" fill-rule="evenodd"/>
              <path id="Fill-33" d="M45,73.523c-3.136-3.5-4.145-7.578-3.576-12.523H28.576c.568,4.944-.441,9.026-3.576,12.523a10.426,10.426,0,0,0,20,0" fill="#e46b6a" fill-rule="evenodd"/>
              <path id="Fill-34" d="M45,73.621C41.873,70.1,40.867,65.982,41.435,61H28.579c.569,4.99-.441,9.109-3.579,12.637l.039.11A33.353,33.353,0,0,0,34.664,75,34.424,34.424,0,0,0,45,73.621" fill="#e05a5b" fill-rule="evenodd"/>
              <path id="Fill-35" d="M10.813,51S9.718,36.682,22.852,31.678s20.8-8.811,21.342-18.709c0,0,4.1,8.629,0,14.466,0,0,4.925.254,5.746-3.046,0,0,1.916,5.439,1.095,7.288,0,0,2.462-.182,2.736-3.734l1.641,18.781L56.507,51l4.012-13.293S71.016,12.97,48.828,6.5c0,0-18.634-16.121-38.038,2.406,0,0-15.66,12.449-5.177,31.98L10.813,51" fill="#25211e" fill-rule="evenodd"/>
              <path id="Fill-36" d="M11.132,8.791A25.849,25.849,0,0,0,3,22C5.016,18.657,11.921,8.442,22.725,5.235,35.71,1.38,49,6.416,49,6.416S30.449-9.493,11.132,8.791" fill="#25211e" fill-rule="evenodd"/>
              <path id="Fill-37" d="M62.845,28v0c.767-7.473-.956-17.3-13.846-21,0,0,14.236,8.8,13.845,21" fill="#25211e" fill-rule="evenodd"/>
              <path id="Fill-38" d="M13.844,43.554c2.127,4.59,1.236,9.855-1.992,11.758s-7.568-.275-9.7-4.866S.92,40.592,4.147,38.689s7.569.274,9.7,4.865" fill="#e5726d" fill-rule="evenodd"/>
              <path id="Fill-39" d="M14,50c-.015-.152-.052-.283-.073-.43a2.333,2.333,0,0,1,.056.265,4.435,4.435,0,0,0-.414-1.872C11.589,41.638,4,41,4,41a23.842,23.842,0,0,1,7.731,5.458c-2.729-.867-6.947.968-6.947.968,5-1.034,7.281-.178,8.326.816A7.586,7.586,0,0,1,14,50" transform="translate(1 2)" fill="#df4f4b" fill-rule="evenodd"/>
              <path id="Fill-40" d="M12.3,54s-5.662-15.969.784-25L17,40.848,12.3,54" fill="#25211e" fill-rule="evenodd"/>
              <path id="Fill-41" d="M52.156,43.554c-2.127,4.59-1.236,9.855,1.992,11.758s7.568-.275,9.7-4.866,1.236-9.854-1.991-11.757-7.569.274-9.7,4.865" fill="#e5726d" fill-rule="evenodd"/>
              <path id="Fill-42" d="M54,52c.015-.186.052-.346.072-.526-.029.13-.046.238-.056.324a6.44,6.44,0,0,1,.414-2.287A11.522,11.522,0,0,1,64,41a24.674,24.674,0,0,0-7.731,6.671c2.729-1.059,6.946,1.183,6.946,1.183-5-1.264-7.28-.217-8.325,1A10.315,10.315,0,0,0,54,52" fill="#df4f4b" fill-rule="evenodd"/>
              <path id="Fill-43" d="M54.8,56s7.04-4.3,2.881-24L49,34.756,54.8,56" fill="#25211e" fill-rule="evenodd"/>
              <path id="Fill-44" d="M55.358,47.133,53.724,28.142C53.451,31.735,51,31.918,51,31.918c.817-1.87-1.09-7.369-1.09-7.369-.817,3.337-5.72,3.08-5.72,3.08,4.085-5.9,0-14.628,0-14.628-.545,10.009-8.171,13.858-21.245,18.918C13.184,35.7,11.32,44.722,11,49.054c.149,5.042,3.874,10.078,6.2,14.288C21.013,67.868,22.774,72,33.6,72c12.093,0,12.987-3.3,17.4-8.658,2.678-4.451,4.521-6.1,4.837-8.549a20.586,20.586,0,0,0-.48-7.66" fill="#ee9f79" fill-rule="evenodd"/>
              <path id="Fill-47" d="M46,42c0,1.657-.672,3-1.5,3S43,43.657,43,42s.672-3,1.5-3S46,40.343,46,42" fill="#150e18" fill-rule="evenodd"/>
              <path id="Fill-48" d="M22,42c0,1.658.671,3,1.5,3S25,43.658,25,42s-.671-3-1.5-3S22,40.342,22,42" fill="#150e18" fill-rule="evenodd"/>
              <path id="Fill-49" d="M18,38a16.986,16.986,0,0,1,6.549-3.055c1.616-.329,4.007.659,5.451.74a4.432,4.432,0,0,0-5.451-3.593A7.731,7.731,0,0,0,18,38" transform="translate(0 1)" fill="#302c3f" fill-rule="evenodd"/>
              <path id="Fill-50" d="M50,36a19.733,19.733,0,0,0-7.108-2.232C41.275,33.633,39.4,34.88,38,35.126a4.324,4.324,0,0,1,4.892-4.119A7.65,7.65,0,0,1,50,36" transform="translate(0 1)" fill="#302c3f" fill-rule="evenodd"/>
              <path id="Fill-55" d="M37,47.88C37,49.6,35.881,51,34.5,51S32,49.6,32,47.88,33.119,44,34.5,44,37,46.155,37,47.88" fill="#df4f4b" fill-rule="evenodd"/>
              <path id="Fill-56" d="M35.343,56a17.884,17.884,0,0,1-10.09-2.889.6.6,0,0,1-.111-.874.7.7,0,0,1,.931-.106,17.888,17.888,0,0,0,14.1,2.022.672.672,0,0,1,.81.445.62.62,0,0,1-.474.76,21.549,21.549,0,0,1-5.161.64" fill="#df4f4b" fill-rule="evenodd"/>
              <path id="Fill-57" d="M44.511,13.488l-.015-.032-.007.087.022-.055" fill="none" stroke="#707070" stroke-width="1" fill-rule="evenodd"/>
            </g>
          </g>
        </g>
      </g>
    </g>
  </g>
  <g id="Watches" transform="translate(-6 -3)">
    <path id="Trazado_1" data-name="Trazado 1" d="M184.419,61.543l.475-2.207.938-1.325,1.294-1.136,1.966-1.109,21.936-.129,7.6-.145,2.9.43,1.6.856,1.547,1.454,1.078,1.625L226,63.009l-.554,2.377-.766,1.928-.9,1.506-1.148,1.658-1.559.891-1.743.766h-1.585l-1.875-.317L213.613,70.7,211.84,69.2l-1.873-2.283-1.3-2.36-.792-2.012-.238-2.087v-1.4l-2.681-.363-2.342.5v2.69l-.4,1.5-.64,1.173-.978,1.944-1.4,1.77-1.755,1.822-2.017,1.254-1.338.569-1.823.211-1.611-.211-1.554-.569-2.587-2.568-1.611-3.46-.317-2.034Z" transform="translate(-145)" fill="none" stroke="#000" stroke-width="1"/>
    <path id="Trazado_2" data-name="Trazado 2" d="M202.6,58.9l-.72-1.683-3.718-1.567" transform="translate(-145)" fill="none" stroke="#000" stroke-width="1"/>
    <path id="Trazado_3" data-name="Trazado 3" d="M207.619,59.017l1.393-1.805,2.9-1.444" transform="translate(-145 -0.116)" fill="none" stroke="#000" stroke-width="1"/>
  </g>
</svg>
